<svg width="165" height="165" viewBox="0 0 165 165" fill="none" xmlns="http://www.w3.org/2000/svg">
<path d="M133.235 53.6929C133.219 57.4774 130.578 60.214 127.014 60.3009C123.406 60.3823 120.49 57.6294 120.344 53.8449C120.242 51.3092 120.323 48.7681 120.323 45.7654C119.399 46.6396 118.827 47.1608 118.276 47.7038C96.3872 69.374 70.5724 84.0399 40.8044 91.6687C36.6892 92.7221 33.1518 90.8379 32.2121 87.1294C31.2778 83.448 33.492 80.1033 37.6397 79.0336C61.0458 73.0066 81.9784 62.1633 100.384 46.4387C103.613 43.6804 106.621 40.6614 109.759 37.7891C110.553 37.0615 111.439 36.4425 112.287 35.7692C112.135 35.5248 111.984 35.2805 111.827 35.0362C108.409 35.0362 104.99 35.0959 101.577 35.0144C98.6122 34.9493 96.182 33.0434 95.3611 30.3611C94.5564 27.7168 95.4907 24.7739 97.9264 23.2481C99.0065 22.564 100.416 22.1079 101.685 22.0916C110.04 21.9775 118.389 21.9938 126.744 22.0156C130.567 22.0264 133.252 24.6653 133.268 28.4987C133.306 36.8986 133.284 45.2984 133.235 53.6929Z" fill="white"/>
<path d="M133.246 134.541C133.235 138.782 130.676 141.6 126.884 141.622C123.055 141.638 120.328 138.695 120.323 134.444C120.306 116.916 120.306 99.3891 120.323 81.8618C120.328 78.1207 122.526 75.3461 125.756 74.8519C128.953 74.3633 131.875 76.0791 132.879 79.1686C133.187 80.108 133.23 81.1613 133.235 82.1604C133.262 90.8915 133.252 99.6226 133.252 108.354C133.252 117.085 133.262 125.81 133.246 134.541Z" fill="white"/>
<path d="M89.1236 117.193C89.1236 122.948 89.1344 128.704 89.1236 134.454C89.1128 138.743 86.4449 141.648 82.5889 141.616C78.8625 141.583 76.2 138.651 76.1946 134.503C76.1838 122.927 76.1838 111.356 76.1946 99.7794C76.2 95.6474 78.8895 92.7316 82.6321 92.7207C86.3909 92.7099 89.1074 95.6148 89.1182 99.7306C89.1398 105.551 89.1236 111.372 89.1236 117.193Z" fill="white"/>
<path d="M44.8934 135.751C44.7691 139.334 41.6746 141.756 38.1697 141.609C34.7835 141.468 32.1372 138.672 32.0778 135.061C32.0292 132.086 32.0724 129.116 32.0724 126.14C32.0724 123.165 32.0292 120.194 32.0832 117.219C32.1534 113.662 34.8537 110.85 38.2399 110.709C41.626 110.567 44.7908 113.152 44.9042 116.698C45.104 123.045 45.1148 129.403 44.8934 135.751Z" fill="white"/>
</svg>
