<svg width="165" height="165" viewBox="0 0 165 165" fill="none" xmlns="http://www.w3.org/2000/svg">
<path d="M149.993 30.6137C149.984 23.2421 144.759 18.0937 137.229 18.0244C133.758 17.9897 130.291 17.9941 126.82 18.0244C119.307 18.0894 114.021 23.2378 114.017 30.5963C113.994 64.8582 113.994 99.1244 114.017 133.386C114.017 140.753 119.29 145.91 126.802 145.984C130.106 146.014 133.409 145.993 136.713 145.988C144.883 145.967 149.993 140.94 149.997 132.918V82.1711C149.997 64.9882 150.006 47.8009 149.993 30.6137ZM139.415 133.165C139.415 135.159 138.947 135.596 136.845 135.605C133.648 135.618 130.454 135.614 127.257 135.605C125.027 135.596 124.585 135.154 124.585 132.914C124.581 115.887 124.585 98.86 124.585 81.8374V31.4067C124.585 28.7285 124.916 28.3992 127.597 28.3992C130.68 28.3948 133.767 28.3862 136.849 28.3992C138.952 28.4078 139.415 28.8412 139.415 30.8477C139.42 64.9535 139.42 99.0593 139.415 133.165Z" fill="white"/>
<path d="M100.983 51.8839C100.965 44.1642 95.6279 39.0747 87.6448 39.0484C84.0715 39.0353 80.4936 38.9215 76.9294 39.0966C75.0473 39.1885 73.0242 39.4729 71.3512 40.2431C66.2458 42.5975 63.9909 46.7024 64 52.1421C64.0364 79.0558 64.0182 105.969 64.0182 132.883C64.0182 133.373 64.0273 133.868 64.0546 134.358C64.391 140.73 69.6191 145.736 76.2611 145.937C79.4889 146.038 82.7258 145.994 85.9582 145.964C87.5948 145.951 89.2769 146.021 90.868 145.705C97.0691 144.471 100.974 139.588 100.988 133.115C101.015 119.575 100.988 106.04 100.988 92.4995C100.988 78.9595 101.015 65.4195 100.979 51.8839H100.983ZM90.0997 132.874C90.0997 135.115 89.7224 135.483 87.4584 135.491C84.167 135.505 80.8801 135.505 77.5932 135.491C75.3019 135.483 74.9109 135.119 74.9109 132.914C74.9018 119.383 74.9064 105.851 74.9064 92.3244V52.5491C74.9064 49.757 75.1382 49.5295 77.975 49.5295C81.0392 49.5251 84.0988 49.5251 87.1583 49.5295C89.8088 49.5338 90.1043 49.8052 90.1043 52.3434C90.1043 73.7868 90.1043 95.2259 90.1043 116.669C90.1043 122.07 90.1134 127.474 90.0997 132.874Z" fill="white"/>
<path d="M49.9873 74.6977C49.9701 67.2028 44.8352 62.0267 37.4635 62.005C34.1962 61.9963 30.9289 62.0007 27.6616 62.005C20.0666 62.018 15.0132 67.142 15.0046 74.8627C15.0003 84.5592 15.0046 94.2556 15.0046 103.952C15.0046 113.649 14.9918 123.558 15.0089 133.363C15.0218 140.745 20.1095 145.908 27.4255 145.982C30.6927 146.012 33.96 145.999 37.2273 145.982C44.9383 145.951 49.9744 140.845 49.9916 133.033C50.0045 125.612 49.9916 118.191 49.9916 110.77C49.9916 98.7456 50.0131 86.7217 49.9873 74.6977ZM39.7046 133.133C39.6831 135.043 39.1894 135.569 37.3432 135.577C34.1318 135.599 30.9203 135.595 27.7088 135.582C25.7296 135.569 25.2916 135.109 25.2873 133.055C25.2831 123.362 25.2873 113.666 25.2873 103.974V75.5445C25.2873 72.5005 25.3861 72.4006 28.3142 72.4049C31.208 72.4093 34.0974 72.4006 36.9912 72.4049C39.2924 72.4093 39.7046 72.8175 39.7089 75.1363V128.908C39.7089 130.315 39.7218 131.721 39.7046 133.133Z" fill="white"/>
</svg>
