<svg width="165" height="165" viewBox="0 0 165 165" fill="none" xmlns="http://www.w3.org/2000/svg">
<path d="M128.726 76.9338C128.715 81.2742 126.139 84.2021 122.324 84.24C118.481 84.2779 115.927 81.4961 115.754 77.0962C115.754 76.9663 115.716 76.831 115.64 76.3385C115.001 76.9338 114.487 77.383 114 77.8647C106.407 85.4469 98.825 93.0399 91.2266 100.617C87.1676 104.665 83.0166 104.216 79.8127 99.4044C76.939 95.091 74.076 90.7777 70.7801 85.8257C70.1956 86.7349 69.8871 87.4493 69.373 87.9635C62.7108 94.6635 56.0162 101.331 49.3432 108.02C47.4003 109.974 45.1165 110.645 42.5025 109.86C40.0996 109.141 38.66 107.42 38.1512 104.984C37.6912 102.781 38.2866 100.784 39.856 99.2096C49.0889 89.928 58.3217 80.641 67.6412 71.4461C70.7098 68.4154 75.0826 69.0053 77.5884 72.6421C80.3485 76.6416 82.9841 80.7168 85.6793 84.7595C86.0419 85.3116 86.4316 85.8474 86.7022 86.237C93.0667 79.8671 99.3879 73.5405 105.742 67.1868C105.152 67.084 104.329 66.9812 103.528 66.7972C100.449 66.0828 98.2297 63.1224 98.4841 60.1079C98.7547 56.8608 101.304 54.2035 104.54 54.1331C110.477 54.0032 116.419 53.96 122.356 54.0411C126.123 54.0953 128.705 56.9311 128.721 60.7358C128.743 66.1369 128.732 71.5381 128.726 76.9338Z" fill="white"/>
</svg>
